<?xml version="1.0" encoding="utf-8"?>
<!-- Generator: Adobe Illustrator 14.0.0, SVG Export Plug-In  -->
<!DOCTYPE svg PUBLIC "-//W3C//DTD SVG 1.1//EN" "http://www.w3.org/Graphics/SVG/1.1/DTD/svg11.dtd" [
	<!ENTITY ns_flows "http://ns.adobe.com/Flows/1.0/">
]>
<svg version="1.1"
	 xmlns="http://www.w3.org/2000/svg" xmlns:xlink="http://www.w3.org/1999/xlink" xmlns:a="http://ns.adobe.com/AdobeSVGViewerExtensions/3.0/"
	 x="0px" y="0px" width="192px" height="192px" viewBox="-3 -7.5 192 192" enable-background="new -3 -7.5 192 192"
	 xml:space="preserve">
<defs>
</defs>
<path display="none" fill="none" stroke="#000000" d="M169,152.5c0,6.6-5.4,12-12,12H29c-6.6,0-12-5.4-12-12v-128
	c0-6.6,5.4-12,12-12h128c6.6,0,12,5.4,12,12V152.5z"/>
<circle display="none" fill="none" stroke="#000000" cx="93" cy="88.5" r="88"/>
<path display="none" fill="none" stroke="#000000" d="M181,140.5c0,6.6-5.4,12-12,12H17c-6.6,0-12-5.4-12-12v-104
	c0-6.6,5.4-12,12-12h152c6.6,0,12,5.4,12,12V140.5z"/>
<path display="none" fill="none" stroke="#000000" d="M157,164.5c0,6.6-5.4,12-12,12H41c-6.6,0-12-5.4-12-12v-152
	c0-6.6,5.4-12,12-12h104c6.6,0,12,5.4,12,12V164.5z"/>
<g>
	<path fill="#F9F9F9" d="M26,162.5c-5.5,0-10-4.5-10-10l6-116c0-5.5,4.5-10,10-10h60c3.1,0,5.3-3.3,7.7-6.9c1.1-1.7,3.4-5.1,4.3-5.1
		h58c0.9,0,3.2,3.5,4.3,5.1c2.4,3.5,4.6,6.9,7.7,6.9h2c5.9,0,8,5.2,8,10l-2,116c0,5.9-1.6,10-4,10H26z"/>
	<path d="M161.5,16.5c0.8,0.7,2.3,2.9,3.2,4.2c2.5,3.8,5.2,7.8,9.3,7.8h2c5.4,0,6,5.5,6,8l-2,116l0,0v0c0,5.4-1.5,7.8-2,8H26
		c-4.4,0-7.9-3.5-8-7.9l6-115.9l0-0.1v-0.1c0-4.4,3.6-8,8-8h60c4.1,0,6.8-4,9.3-7.8c0.9-1.3,2.3-3.5,3.2-4.2H161.5 M162,12.5
		c-4,0-54,0-58,0s-8,12-12,12s-60,0-60,0c-6.6,0-12,5.4-12,12l-6,116c0,6.6,5.4,12,12,12h152c4,0,6-5.4,6-12l2-116
		c0-6.6-3.4-12-10-12h0.5c0,0-0.5,0-2.5,0C170,24.5,166,12.5,162,12.5L162,12.5z"/>
</g>
<g>
	<linearGradient id="SVGID_1_" gradientUnits="userSpaceOnUse" x1="87.6553" y1="162.5" x2="87.6553" y2="56.4961">
		<stop  offset="0" style="stop-color:#565656"/>
		<stop  offset="3.454494e-002" style="stop-color:#6D6D6D"/>
		<stop  offset="9.287924e-002" style="stop-color:#8C8C8C"/>
		<stop  offset="0.159" style="stop-color:#A8A8A8"/>
		<stop  offset="0.2337" style="stop-color:#BEBEBE"/>
		<stop  offset="0.3209" style="stop-color:#CECECE"/>
		<stop  offset="0.4287" style="stop-color:#DADADA"/>
		<stop  offset="0.58" style="stop-color:#E1E1E1"/>
		<stop  offset="1" style="stop-color:#E3E3E3"/>
	</linearGradient>
	<path fill="url(#SVGID_1_)" d="M22,162.5c-5.5,0-10-4.5-10-10v-0.1l-10-86c0.1-5.5,4.5-9.9,10-9.9h76c1.2,0.3,4.5,4.6,6.4,7.2
		c4.1,5.5,6.7,8.8,9.6,8.8h40c2.9,0,5.5-3.3,9.6-8.8c1.9-2.6,5.2-6.9,6.5-7.2l1.9,0c5.5,0,10,4.5,10,10v86c0,4.1,0.7,7.7,1.3,10H22z
		"/>
	<path d="M162,58.5c4.4,0,8,3.6,8,8v86c0,3,0.4,5.8,0.8,8H22c-4.4,0-8-3.6-8-8v-0.2l0-0.2L4,66.3c0.1-4.3,3.7-7.8,8-7.8h75.4
		c1.2,0.9,3.8,4.3,5.4,6.4c4,5.4,7.2,9.6,11.2,9.6h40c4,0,7.2-4.2,11.2-9.6c1.6-2.1,4.1-5.5,5.4-6.4H162 M162.5,54.5
		c0,0-0.5,0-2.5,0c-4,0-12,16-16,16s-36,0-40,0s-12-16-16-16s-76,0-76,0c-6.6,0-12,5.4-12,12l10,86c0,6.6,5.4,12,12,12h154
		c0,0-2-5.4-2-12v-86c0-6.6-5.4-12-12-12H162.5L162.5,54.5z"/>
</g>
<line fill="none" stroke="#FFFFFF" stroke-width="2" stroke-opacity="0.5" x1="16" y1="150.5" x2="166" y2="150.5"/>
<line fill="none" stroke="#000000" stroke-width="2" stroke-opacity="0.5" x1="20" y1="152.5" x2="168" y2="152.5"/>
<line fill="none" stroke="#FFFFFF" stroke-width="2" stroke-opacity="0.5" x1="24" y1="156.5" x2="168" y2="156.5"/>
<line fill="none" stroke="#000000" stroke-width="2" stroke-opacity="0.5" x1="26" y1="158.5" x2="170" y2="158.5"/>
</svg>
