<?xml version="1.0" encoding="utf-8"?>
<!-- Generator: Adobe Illustrator 14.0.0, SVG Export Plug-In  -->
<!DOCTYPE svg PUBLIC "-//W3C//DTD SVG 1.1//EN" "http://www.w3.org/Graphics/SVG/1.1/DTD/svg11.dtd" [
	<!ENTITY ns_flows "http://ns.adobe.com/Flows/1.0/">
]>
<svg version="1.1"
	 xmlns="http://www.w3.org/2000/svg" xmlns:xlink="http://www.w3.org/1999/xlink" xmlns:a="http://ns.adobe.com/AdobeSVGViewerExtensions/3.0/"
	 x="0px" y="0px" width="192px" height="192px" viewBox="0 0 192 192" enable-background="new 0 0 192 192" xml:space="preserve">
<defs>
</defs>
<path display="none" fill="none" stroke="#000000" d="M172,160c0,6.6-5.4,12-12,12H32c-6.6,0-12-5.4-12-12V32c0-6.6,5.4-12,12-12
	h128c6.6,0,12,5.4,12,12V160z"/>
<circle display="none" fill="none" stroke="#000000" cx="96" cy="96" r="88"/>
<path display="none" fill="none" stroke="#000000" d="M184,148c0,6.6-5.4,12-12,12H20c-6.6,0-12-5.4-12-12V44c0-6.6,5.4-12,12-12
	h152c6.6,0,12,5.4,12,12V148z"/>
<path display="none" fill="none" stroke="#000000" d="M160,172c0,6.6-5.4,12-12,12H44c-6.6,0-12-5.4-12-12V20c0-6.6,5.4-12,12-12
	h104c6.6,0,12,5.4,12,12V172z"/>
<path opacity="9.000000e-002" d="M161.8,178.4c0,7.7-1.6,11.6-9.3,11.6l-48.7-2.3c-7.7,0-13.9-6.2-13.9-13.9v-41.7
	c0-7.7,6.2-13.9,13.9-13.9h41.7c7.7,0,13.9,6.2,13.9,13.9L161.8,178.4z"/>
<g>
	<linearGradient id="SVGID_1_" gradientUnits="userSpaceOnUse" x1="12.375" y1="11.2568" x2="147.5349" y2="184.2537">
		<stop  offset="0" style="stop-color:#D4D4D4"/>
		<stop  offset="1" style="stop-color:#FFFFFF"/>
	</linearGradient>
	<path fill="url(#SVGID_1_)" d="M2.6,186c-0.2-0.2-0.5-0.3-0.6-0.4c-0.1-0.3-0.1-1-0.1-1.8L2.2,24l22-22h121.6
		c6.6,0,11.9,5.3,11.9,11.9c0,0.7-0.3,74.4-0.3,97.3c0,21.9-1.9,58.7-2,62.2c-0.2,0.5-0.3,0.9-0.4,1.4c-1.8,5.5-2.2,6.8-9.5,8.6
		c-3.1,0.2-42.4,2.3-55.6,2.3C76.9,185.7,9.8,186,2.6,186L2.6,186z"/>
	<path d="M145.9,4c5.5,0,9.9,4.4,9.9,9.9c0,0.7-0.3,74.4-0.3,97.3c0,21.3-1.8,57-2,61.8c-0.1,0.4-0.2,0.8-0.4,1.1
		c-0.8,2.6-1.3,4-2.1,4.8c-0.9,0.9-2.7,1.7-5.8,2.5c-4.3,0.2-42.3,2.3-55.3,2.3c-12.5,0-74,0.3-86,0.3c0-0.1,0-0.1,0-0.2l0.2-159
		L25.1,4H145.9 M145.9,0H23.4L0.2,23.2L0,183.8c0,2.8,0,2.8,2,4.2c0,0,74.1-0.3,88-0.3s55.9-2.3,55.9-2.3c9.3-2.3,9.3-4.6,11.6-11.6
		c0,0,2.1-39.4,2.1-62.6s0.3-97.3,0.3-97.3C159.8,6.2,153.5,0,145.9,0L145.9,0z"/>
</g>
<g opacity="9.000000e-002">
	<path d="M32,33.4C24.9,31,6.2,22.8,4,19.8C5,16.7,17.3,5.2,21.4,2.5C24,7.3,30.5,26.6,32,33.4L32,33.4z"/>
	<path d="M20.7,5.5c2.4,5.6,6.5,17.5,8.4,24.6c-7.2-2.8-18.7-8-22.5-10.8C9,15.9,16.4,8.9,20.7,5.5 M22,0C20,0,2,16,2,20
		s30,16,32,16S24,0,22,0L22,0z"/>
</g>
<g opacity="9.000000e-002">
	<path d="M29.9,29.7c-6-1.1-22.1-5.5-24.4-8c1-3.1,13.2-14.5,17.4-17.3C25,8.9,29.3,24.4,29.9,29.7L29.9,29.7z"/>
	<path d="M22,7.6c1.8,4.8,4.3,14,5.5,19.5c-2.2-0.5-5.1-1.2-8.1-2.1c-6.3-1.8-9.5-3.1-11.1-3.9C10.8,17.6,17.8,11,22,7.6 M23.5,2
		c-2,0-20,16-20,20s26.2,10,28.2,10S25.5,2,23.5,2L23.5,2z"/>
</g>
<g>
	<linearGradient id="SVGID_2_" gradientUnits="userSpaceOnUse" x1="14.0088" y1="12.5225" x2="26.995" y2="25.5086">
		<stop  offset="0" style="stop-color:#9E9E9E"/>
		<stop  offset="1" style="stop-color:#FFFFFF"/>
	</linearGradient>
	<path fill="url(#SVGID_2_)" d="M26.6,25.9c-5.1-0.4-18.3-2.2-20.5-4.2C7.1,18.6,19,7.5,23.3,4.6C24.7,8.8,26.7,21.7,26.6,25.9
		L26.6,25.9z"/>
	<path d="M22.1,8c1,4.4,2.1,11.6,2.4,15.8c-4.7-0.5-12.1-1.6-15.6-2.8C11.5,17.5,18,11.3,22.1,8 M24,2C22,2,4,18,4,22s22,6,24,6
		S26,2,24,2L24,2z"/>
</g>
<path opacity="9.000000e-002" stroke="#000000" stroke-width="4" d="M176,108c0,0,0-32,0-48s-16-16-16-16h-8v8l-16-16l16-16v8l8-0.2
	c0,0,26,0.2,26,16.2C186,76,176,108,176,108z"/>
<linearGradient id="SVGID_3_" gradientUnits="userSpaceOnUse" x1="132" y1="58" x2="182" y2="58">
	<stop  offset="0" style="stop-color:#0071BC"/>
	<stop  offset="0.5" style="stop-color:#29ABE2"/>
	<stop  offset="1" style="stop-color:#2E3192"/>
</linearGradient>
<path fill="url(#SVGID_3_)" stroke="#000000" stroke-width="4" d="M172,102c0,0,0-32,0-48s-16-16-16-16h-8v8l-16-16l16-16v8l8-0.2
	c0,0,26,0.2,26,16.2C182,70,172,102,172,102z"/>
</svg>
