<?xml version="1.0" encoding="utf-8"?>
<!-- Generator: Adobe Illustrator 14.0.0, SVG Export Plug-In  -->
<!DOCTYPE svg PUBLIC "-//W3C//DTD SVG 1.1//EN" "http://www.w3.org/Graphics/SVG/1.1/DTD/svg11.dtd" [
	<!ENTITY ns_flows "http://ns.adobe.com/Flows/1.0/">
]>
<svg version="1.1"
	 xmlns="http://www.w3.org/2000/svg" xmlns:xlink="http://www.w3.org/1999/xlink" xmlns:a="http://ns.adobe.com/AdobeSVGViewerExtensions/3.0/"
	 x="0px" y="0px" width="192px" height="192px" viewBox="-7.5 -4 192 192" enable-background="new -7.5 -4 192 192"
	 xml:space="preserve">
<defs>
</defs>
<path display="none" fill="none" stroke="#000000" d="M164.5,156c0,6.6-5.4,12-12,12h-128c-6.6,0-12-5.4-12-12V28
	c0-6.6,5.4-12,12-12h128c6.6,0,12,5.4,12,12V156z"/>
<circle display="none" fill="none" stroke="#000000" cx="88.5" cy="92" r="88"/>
<path display="none" fill="none" stroke="#000000" d="M176.5,144c0,6.6-5.4,12-12,12h-152c-6.6,0-12-5.4-12-12V40
	c0-6.6,5.4-12,12-12h152c6.6,0,12,5.4,12,12V144z"/>
<path display="none" fill="none" stroke="#000000" d="M152.5,168c0,6.6-5.4,12-12,12h-104c-6.6,0-12-5.4-12-12V16
	c0-6.6,5.4-12,12-12h104c6.6,0,12,5.4,12,12V168z"/>
<g>
	<linearGradient id="SVGID_1_" gradientUnits="userSpaceOnUse" x1="40.4619" y1="37.3032" x2="171.9499" y2="155.6956">
		<stop  offset="0" style="stop-color:#B5B5B5"/>
		<stop  offset="1" style="stop-color:#E0E0E0"/>
	</linearGradient>
	<path fill="url(#SVGID_1_)" d="M147.6,182c-0.3,0-0.7,0-1.1-0.1L36.2,162.4c-1.9-0.3-2-0.3-1.6-2.3l25-141.8c0.8-4.8,5-8.3,9.8-8.3
		c0.6,0,1.2,0.1,1.8,0.2l102.4,18.1c1.9,0.3,2,0.3,1.6,2.3l-26.4,149.7C148.5,182,148.5,182,147.6,182L147.6,182z"/>
	<path d="M69.5,12L69.5,12c0.5,0,0.9,0,1.4,0.1l102.4,18.1c0,0,0,0,0,0l-26.4,149.7l0,0l0,0L36.6,160.5c0,0,0,0,0,0l25-141.8
		C62.3,14.8,65.6,12,69.5,12 M69.5,8c-5.7,0-10.8,4.1-11.8,9.9l-25,141.8c-0.7,3.9,1.3,4.3,3.2,4.6l110.3,19.4
		c0.6,0.1,1,0.1,1.5,0.1c2.6,0,2.9-1.7,3.2-3.4l26.4-149.7c0.7-3.9-1.3-4.3-3.2-4.6L71.5,8.2C70.8,8.1,70.1,8,69.5,8L69.5,8z"/>
</g>
<path opacity="9.000000e-002" d="M126.5,154c0,6.6-1.4,10-8,10l-42-2c-6.6,0-12-5.4-12-12v-36c0-6.6,5.4-12,12-12h36
	c6.6,0,12,5.4,12,12L126.5,154z"/>
<g>
	<linearGradient id="SVGID_2_" gradientUnits="userSpaceOnUse" x1="10.0425" y1="12.5552" x2="120.4786" y2="153.9069">
		<stop  offset="0" style="stop-color:#D4D4D4"/>
		<stop  offset="1" style="stop-color:#FFFFFF"/>
	</linearGradient>
	<path fill="url(#SVGID_2_)" d="M6.5,160c-0.5,0-1,0-1.5,0c-0.2,0-0.3,0-0.5,0c0-0.5,0-1.2,0-1.9L4.7,20.8L23.6,2h96.9
		c0.8,0,1.5,0,2,0c0,0.5,0,1.2,0,1.9l0,92.1c0,19.7-1.8,53.6-1.8,53.9c-0.1,2.9-0.2,3.8-0.8,4.4c-0.9,0.9-3.3,1.9-7.6,3.7
		c-3.7,0.2-36.6,2-47.8,2H6.5z"/>
	<path d="M120.5,4v92c0,19.7-1.8,53.5-1.8,53.8l0,0l0,0c0,1.3-0.1,2.7-0.3,3.1c-0.5,0.6-3.3,1.8-6.6,3.1c-5,0.3-36.5,2-47.3,2H6.6
		c0,0,0,0-0.1,0L6.7,21.7L24.4,4H120.5 M120.5,0H22.7l-20,20L2.5,158.1c0,4.5,0,3.8,4,3.9c0,0,46,0,58,0s48.2-2,48.2-2
		c9.8-4,9.8-4,10-10c0,0,1.8-34,1.8-54s0-92,0-92C124.6,0,124.6,0,120.5,0L120.5,0z"/>
</g>
<g opacity="9.000000e-002">
	<path d="M32.7,33.4C25.6,31,7,22.8,4.8,19.8C5.7,16.7,18,5.2,22.2,2.5C24.7,7.3,31.3,26.6,32.7,33.4L32.7,33.4z"/>
	<path d="M21.4,5.5c2.4,5.6,6.5,17.5,8.4,24.6c-7.2-2.8-18.7-8-22.5-10.8C9.7,15.9,17.1,8.9,21.4,5.5 M22.7,0c-2,0-20,16-20,20
		s30,16,32,16S24.7,0,22.7,0L22.7,0z"/>
</g>
<g opacity="9.000000e-002">
	<path d="M29,27.7c-6-1.1-22.1-5.5-24.4-8c1-3.1,13.2-14.5,17.4-17.3C24,6.9,28.3,22.4,29,27.7L29,27.7z"/>
	<path d="M21,5.6c1.8,4.8,4.3,14,5.5,19.5c-2.2-0.5-5.1-1.2-8.1-2.1c-6.3-1.8-9.5-3.1-11.1-3.9C9.8,15.6,16.8,9,21,5.6 M22.5,0
		c-2,0-20,16-20,20s26.2,10,28.2,10S24.5,0,22.5,0L22.5,0z"/>
</g>
<g>
	<linearGradient id="SVGID_3_" gradientUnits="userSpaceOnUse" x1="12.7319" y1="10.522" x2="25.7188" y2="23.5088">
		<stop  offset="0" style="stop-color:#9E9E9E"/>
		<stop  offset="1" style="stop-color:#FFFFFF"/>
	</linearGradient>
	<path fill="url(#SVGID_3_)" d="M25.3,23.9C20.2,23.6,7,21.7,4.8,19.8C5.8,16.6,17.7,5.5,22,2.6C23.4,6.8,25.4,19.7,25.3,23.9
		L25.3,23.9z"/>
	<path d="M20.8,6c1,4.4,2.1,11.6,2.4,15.8c-4.7-0.5-12.1-1.6-15.6-2.8C10.2,15.5,16.7,9.3,20.8,6 M22.7,0c-2,0-20,16-20,20
		s22,6,24,6S24.7,0,22.7,0L22.7,0z"/>
</g>
</svg>
