<?xml version="1.0" encoding="utf-8"?>
<!-- Generator: Adobe Illustrator 14.0.0, SVG Export Plug-In  -->
<!DOCTYPE svg PUBLIC "-//W3C//DTD SVG 1.1//EN" "http://www.w3.org/Graphics/SVG/1.1/DTD/svg11.dtd" [
	<!ENTITY ns_flows "http://ns.adobe.com/Flows/1.0/">
]>
<svg version="1.1"
	 xmlns="http://www.w3.org/2000/svg" xmlns:xlink="http://www.w3.org/1999/xlink" xmlns:a="http://ns.adobe.com/AdobeSVGViewerExtensions/3.0/"
	 x="0px" y="0px" width="192px" height="192px" viewBox="-2 -2 192 192" enable-background="new -2 -2 192 192"
	 xml:space="preserve">
<defs>
</defs>
<path display="none" fill="none" stroke="#000000" d="M170,158c0,6.6-5.4,12-12,12H30c-6.6,0-12-5.4-12-12V30c0-6.6,5.4-12,12-12
	h128c6.6,0,12,5.4,12,12V158z"/>
<circle display="none" fill="none" stroke="#000000" cx="94" cy="94" r="88"/>
<path display="none" fill="none" stroke="#000000" d="M182,146c0,6.6-5.4,12-12,12H18c-6.6,0-12-5.4-12-12V42c0-6.6,5.4-12,12-12
	h152c6.6,0,12,5.4,12,12V146z"/>
<path display="none" fill="none" stroke="#000000" d="M158,170c0,6.6-5.4,12-12,12H42c-6.6,0-12-5.4-12-12V18c0-6.6,5.4-12,12-12
	h104c6.6,0,12,5.4,12,12V170z"/>
<linearGradient id="SVGID_1_" gradientUnits="userSpaceOnUse" x1="87.4102" y1="178" x2="87.4102" y2="156.6807">
	<stop  offset="0" style="stop-color:#000000"/>
	<stop  offset="0.5" style="stop-color:#603813"/>
	<stop  offset="1" style="stop-color:#A67C52"/>
</linearGradient>
<path fill="url(#SVGID_1_)" d="M90,158c-6-4-6,2-8,6s-2,8,0,10s2,4,4,4s2,0,4-2s4-4,4-6S96,162,90,158z"/>
<linearGradient id="SVGID_2_" gradientUnits="userSpaceOnUse" x1="80.0005" y1="180" x2="80.0005" y2="155.5977">
	<stop  offset="0" style="stop-color:#000000"/>
	<stop  offset="0.5" style="stop-color:#603813"/>
	<stop  offset="1" style="stop-color:#A67C52"/>
</linearGradient>
<path fill="url(#SVGID_2_)" d="M56,162c4-2,14-8,18-6s10,4,14,6s4,6,10,8s6,8,6,8l-8,2c0,0,0-2-2-4s-6-4-8-6s-12-6-14-8s-8-2-10,0"
	/>
<g>
	<linearGradient id="SVGID_3_" gradientUnits="userSpaceOnUse" x1="106.7529" y1="134.4219" x2="53.5791" y2="81.248">
		<stop  offset="0" style="stop-color:#E6E6E6"/>
		<stop  offset="1" style="stop-color:#E6E6E6"/>
	</linearGradient>
	<path fill="url(#SVGID_3_)" d="M2,186v-48c0-4.4,5.3-10.6,7.4-12.6L131.7,3.1l7.9,11.1L132.3,29l17.2-4.3L145.2,48l19.2-11.5
		L157.2,58h25.3c-10.3,8.7-37.4,32-57.9,52.6c-11.4,11.4-14.5,14.9-22,23.5c-6.8,7.7-17,19.4-40.1,44.6C59,182.2,54,186,52,186H2z
		 M18,162c-5,0-6.3,0-7,1.7c-0.6,1.5,0.5,2.6,1.6,3.8c0.4,0.4,0.4,0.6-0.8,3.5c-0.5,1.2-1.1,2.7-1.7,4.5L9.6,177l1.6,0.8
		c0.2,0.1,5.6,2.8,10.1,2.8c1.4,0,2.7-0.3,3.7-0.8c1.4-0.7,1.9-0.8,1.9-0.8c0,0,0,0,0,0c1,0,1.5-0.4,2.6-1.6c2.6-2.6,1.1-5.4-0.4-8
		c-0.4-0.7-0.8-1.4-1.2-2.3C25.3,162.2,24.4,162,18,162L18,162z"/>
	<path d="M131.5,6.2l5.9,8.2l-4.9,9.8l-3.9,7.8l8.4-2.1l10-2.5l-2.9,15.9l-1.6,8.7l7.6-4.5l10.7-6.4l-4.6,13.7l-1.8,5.3h5.5h17.1
		c-12.3,10.5-35.7,30.9-53.9,49.2c-11.5,11.5-14.6,15-22.1,23.6c-6.8,7.7-17,19.4-40,44.5c-3.4,3.4-7.7,6.6-9.2,6.8H4v-46
		c0-3.1,4-8.4,6.8-11.2L131.5,6.2 M10.7,168.3c-0.2,0.5-0.5,1.2-0.7,1.8c-0.5,1.2-1.1,2.7-1.8,4.6L7.1,178l3.1,1.6
		c0.6,0.3,6.1,3,11,3c1.7,0,3.3-0.3,4.6-1c0.7-0.4,1.1-0.5,1.3-0.6c1.7-0.1,2.6-1,3.7-2.2c3.7-3.7,1.4-7.7-0.1-10.4
		c-0.4-0.7-0.8-1.4-1.2-2.2c-2.9-5.7-4.5-6.2-11.6-6.2c-5.3,0-7.7,0-8.9,2.9C8.1,165.3,9.5,167.1,10.7,168.3 M132,0L8,124
		c0,0-8,7.8-8,14c0,3.8,0,50,0,50s48,0,52,0s12-8,12-8c48.8-53.3,40.4-46.4,62-68c26-26,62-56,62-56h-28l8-24l-20,12l4-22l-16,4
		l6-12L132,0L132,0z M21.2,178.6c-4.1,0-9.2-2.6-9.2-2.6c2-6,4-8,2-10s-2-2,4-2s6,0,8,4s4,6,2,8s0,0-4,2
		C23.2,178.4,22.2,178.6,21.2,178.6L21.2,178.6z"/>
</g>
<linearGradient id="SVGID_4_" gradientUnits="userSpaceOnUse" x1="69.1313" y1="174.8281" x2="69.1313" y2="161.5918">
	<stop  offset="0" style="stop-color:#000000"/>
	<stop  offset="0.5" style="stop-color:#603813"/>
	<stop  offset="1" style="stop-color:#A67C52"/>
</linearGradient>
<path fill="url(#SVGID_4_)" d="M24,166c-2,0-4,4-4,6s2,2,4,2s38-4,44-2s18,4,20,2s0,0,2-4s4,2,12,2c4,0,14,2,16,0s-8-6-12-6
	c-2.8,0-8-6-14-4c-4.2,1.4-4,6-6,4s-26-2-30-2s2,0-10,0C35.8,164,24,166,24,166z"/>
</svg>
