<?xml version="1.0" encoding="utf-8"?>
<!-- Generator: Adobe Illustrator 14.0.0, SVG Export Plug-In  -->
<!DOCTYPE svg PUBLIC "-//W3C//DTD SVG 1.1//EN" "http://www.w3.org/Graphics/SVG/1.1/DTD/svg11.dtd" [
	<!ENTITY ns_flows "http://ns.adobe.com/Flows/1.0/">
]>
<svg version="1.1"
	 xmlns="http://www.w3.org/2000/svg" xmlns:xlink="http://www.w3.org/1999/xlink" xmlns:a="http://ns.adobe.com/AdobeSVGViewerExtensions/3.0/"
	 x="0px" y="0px" width="192px" height="192px" viewBox="-7.5 -2 192 192" enable-background="new -7.5 -2 192 192"
	 xml:space="preserve">
<defs>
</defs>
<path display="none" fill="none" stroke="#000000" d="M164.5,158c0,6.627-5.373,12-12,12h-128c-6.627,0-12-5.373-12-12V30
	c0-6.627,5.373-12,12-12h128c6.627,0,12,5.373,12,12V158z"/>
<circle display="none" fill="none" stroke="#000000" cx="88.5" cy="94" r="88"/>
<path display="none" fill="none" stroke="#000000" d="M176.5,146c0,6.627-5.373,12-12,12h-152c-6.627,0-12-5.373-12-12V42
	c0-6.627,5.373-12,12-12h152c6.627,0,12,5.373,12,12V146z"/>
<path display="none" fill="none" stroke="#000000" d="M152.5,170c0,6.627-5.373,12-12,12h-104c-6.627,0-12-5.373-12-12V18
	c0-6.627,5.373-12,12-12h104c6.627,0,12,5.373,12,12V170z"/>
<path opacity="0.09" d="M168.414,178.415c0,7.677-1.59,11.585-9.268,11.585l-48.658-2.317c-7.679,0-13.902-6.225-13.902-13.902
	v-41.707c0-7.678,6.224-13.902,13.902-13.902h41.707c7.678,0,13.902,6.225,13.902,13.902L168.414,178.415z"/>
<g>
	<linearGradient id="SVGID_1_" gradientUnits="userSpaceOnUse" x1="18.9604" y1="11.2568" x2="154.1204" y2="184.2537">
		<stop  offset="0" style="stop-color:#D4D4D4"/>
		<stop  offset="1" style="stop-color:#FFFFFF"/>
	</linearGradient>
	<path fill="url(#SVGID_1_)" d="M9.191,185.997c-0.243-0.166-0.453-0.316-0.553-0.409c-0.052-0.273-0.052-1.025-0.052-1.755
		L8.808,24l22-22h121.646c6.563,0,11.902,5.339,11.902,11.902c-0.003,0.734-0.26,74.408-0.26,97.317
		c0,21.855-1.861,58.672-2.042,62.188c-0.156,0.474-0.303,0.925-0.442,1.356c-1.765,5.45-2.195,6.779-9.46,8.616
		c-3.097,0.169-42.356,2.303-55.567,2.303C83.509,185.683,16.355,185.967,9.191,185.997L9.191,185.997z"/>
	<path d="M152.455,4c5.46,0,9.902,4.442,9.902,9.888c-0.003,0.742-0.26,74.418-0.26,97.332c0,21.344-1.781,57.025-2.025,61.816
		c-0.127,0.385-0.246,0.755-0.362,1.111c-0.838,2.591-1.313,3.98-2.097,4.79c-0.867,0.894-2.652,1.655-5.765,2.456
		c-4.264,0.232-42.335,2.289-55.263,2.289c-12.463,0-74.017,0.258-86,0.309c0-0.051,0-0.103,0-0.152L10.807,24.83L31.637,4H152.455
		 M152.455,0H29.98L6.809,23.171L6.585,183.833c0,2.834,0,2.834,2,4.167c0,0,74.098-0.317,88-0.317
		c13.902,0,55.869-2.316,55.869-2.316c9.268-2.317,9.268-4.635,11.584-11.586c0,0,2.059-39.39,2.059-62.561s0.26-97.317,0.26-97.317
		C166.357,6.225,160.131,0,152.455,0L152.455,0z"/>
</g>
<g opacity="0.09">
	<path d="M38.541,33.397c-7.056-2.356-25.715-10.605-27.909-13.592c0.949-3.112,13.239-14.568,17.392-17.322
		C30.61,7.314,37.129,26.599,38.541,33.397L38.541,33.397z"/>
	<path d="M27.243,5.541c2.405,5.582,6.46,17.511,8.428,24.644c-7.198-2.808-18.715-8.01-22.496-10.794
		C15.547,15.936,22.965,8.92,27.243,5.541 M28.585,0c-2,0-20,16-20,20s30,16,32,16S30.585,0,28.585,0L28.585,0z"/>
</g>
<g opacity="0.09">
	<path d="M36.519,29.747c-6.002-1.111-22.149-5.546-24.412-7.972c1.018-3.149,13.189-14.496,17.355-17.272
		C31.559,8.858,35.874,24.361,36.519,29.747L36.519,29.747z"/>
	<path d="M28.574,7.647c1.774,4.845,4.331,14.009,5.451,19.478c-2.244-0.51-5.115-1.219-8.134-2.073
		c-6.334-1.792-9.519-3.13-11.065-3.924C17.352,17.627,24.385,10.979,28.574,7.647 M30.051,2c-2,0-20,16-20,20s26.224,10,28.224,10
		S32.051,2,30.051,2L30.051,2z"/>
</g>
<g>
	<linearGradient id="SVGID_2_" gradientUnits="userSpaceOnUse" x1="20.5938" y1="12.5225" x2="33.5799" y2="25.5086">
		<stop  offset="0" style="stop-color:#9E9E9E"/>
		<stop  offset="1" style="stop-color:#FFFFFF"/>
	</linearGradient>
	<path fill="url(#SVGID_2_)" d="M33.154,25.935c-5.098-0.365-18.324-2.201-20.51-4.168c1.025-3.127,12.931-14.248,17.215-17.172
		C31.286,8.805,33.289,21.717,33.154,25.935L33.154,25.935z"/>
	<path d="M28.702,7.974c1.019,4.424,2.118,11.624,2.389,15.777c-4.718-0.48-12.092-1.591-15.59-2.813
		C18.05,17.507,24.556,11.335,28.702,7.974 M30.585,2c-2,0-20,16-20,20s22,6,24,6S32.585,2,30.585,2L30.585,2z"/>
</g>
<path fill="#221560" d="M51.92,50l98.58,10.545v12.492l-98.58-10.54"/>
<path fill="none" stroke="#221560" stroke-width="6" d="M54.873,115.026V53.825"/>
<path id="hd_4_" fill="#221560" d="M122.5,119.764c11.758-2.217,23.935-0.252,27.194,4.389c3.251,4.641-3.624,10.202-15.382,12.423
	c-11.748,2.214-23.929,0.248-27.185-4.392C103.866,127.542,110.753,121.981,122.5,119.764z"/>
<path fill="none" stroke="#221560" stroke-width="6" d="M147.569,126.912V62.929"/>
<path id="hd_3_" fill="#221560" d="M29.791,107.596c11.758-2.217,23.935-0.252,27.194,4.389c3.251,4.641-3.624,10.202-15.382,12.423
	c-11.748,2.214-23.929,0.248-27.185-4.392C11.157,115.374,18.043,109.813,29.791,107.596z"/>
</svg>
