<?xml version="1.0" encoding="utf-8"?>
<!-- Generator: Adobe Illustrator 14.0.0, SVG Export Plug-In  -->
<!DOCTYPE svg PUBLIC "-//W3C//DTD SVG 1.1//EN" "http://www.w3.org/Graphics/SVG/1.1/DTD/svg11.dtd" [
	<!ENTITY ns_flows "http://ns.adobe.com/Flows/1.0/">
]>
<svg version="1.1"
	 xmlns="http://www.w3.org/2000/svg" xmlns:xlink="http://www.w3.org/1999/xlink" xmlns:a="http://ns.adobe.com/AdobeSVGViewerExtensions/3.0/"
	 x="0px" y="0px" width="192px" height="192px" viewBox="0 0 192 192" enable-background="new 0 0 192 192" xml:space="preserve">
<defs>
</defs>
<g>
	<linearGradient id="SVGID_1_" gradientUnits="userSpaceOnUse" x1="37.9614" y1="37.3027" x2="169.4502" y2="155.6957">
		<stop  offset="0" style="stop-color:#B5B5B5"/>
		<stop  offset="1" style="stop-color:#E0E0E0"/>
	</linearGradient>
	<path fill="url(#SVGID_1_)" d="M145.1,182c-0.3,0-0.7,0-1.1-0.1L33.7,162.4c-1.9-0.3-2-0.3-1.6-2.3l25-141.8c0.8-4.8,5-8.3,9.8-8.3
		c0.6,0,1.2,0.1,1.8,0.2l102.4,18.1c1.9,0.3,2,0.3,1.6,2.3l-26.4,149.7C146,182,146,182,145.1,182L145.1,182z"/>
	<path d="M67,12L67,12c0.5,0,0.9,0,1.4,0.1l102.4,18.1c0,0,0,0,0,0l-26.4,149.7l0,0l0,0L34.1,160.5h0l25-141.8
		C59.8,14.8,63.1,12,67,12 M67,8c-5.7,0-10.8,4.1-11.8,9.9l-25,141.8c-0.7,3.9,1.3,4.3,3.2,4.6l110.3,19.4c0.6,0.1,1,0.1,1.5,0.1
		c2.6,0,2.9-1.7,3.2-3.4l26.4-149.7c0.7-3.9-1.3-4.3-3.2-4.6L69,8.2C68.3,8.1,67.6,8,67,8L67,8z"/>
</g>
<path opacity="9.000000e-002" d="M124,154c0,6.6-1.4,10-8,10l-42-2c-6.6,0-12-5.4-12-12v-36c0-6.6,5.4-12,12-12h36
	c6.6,0,12,5.4,12,12L124,154z"/>
<g>
	<linearGradient id="SVGID_2_" gradientUnits="userSpaceOnUse" x1="7.5425" y1="12.5552" x2="117.9786" y2="153.9069">
		<stop  offset="0" style="stop-color:#D4D4D4"/>
		<stop  offset="1" style="stop-color:#FFFFFF"/>
	</linearGradient>
	<path fill="url(#SVGID_2_)" d="M4,160c-0.5,0-1,0-1.5,0c-0.2,0-0.3,0-0.5,0c0-0.5,0-1.2,0-1.9L2.2,20.8L21.1,2H118c0.8,0,1.5,0,2,0
		c0,0.5,0,1.2,0,1.9l0,92.1c0,19.7-1.8,53.6-1.8,53.9c-0.1,2.9-0.2,3.8-0.8,4.4c-0.9,0.9-3.3,1.9-7.6,3.7c-3.7,0.2-36.6,2-47.8,2H4z
		"/>
	<path d="M118,4v92c0,19.7-1.8,53.5-1.8,53.8l0,0l0,0c0,1.3-0.1,2.7-0.3,3.1c-0.5,0.6-3.3,1.8-6.6,3.1c-5,0.3-36.5,2-47.3,2H4.1
		c0,0,0,0-0.1,0L4.2,21.7L21.9,4H118 M118,0H20.2l-20,20L0,158.1c0,4.5,0,3.8,4,3.9c0,0,46,0,58,0s48.2-2,48.2-2c9.8-4,9.8-4,10-10
		c0,0,1.8-34,1.8-54s0-92,0-92C122.1,0,122.1,0,118,0L118,0z"/>
</g>
<g opacity="9.000000e-002">
	<path d="M30.2,33.4C23.1,31,4.5,22.8,2.3,19.8C3.2,16.7,15.5,5.2,19.7,2.5C22.2,7.3,28.8,26.6,30.2,33.4L30.2,33.4z"/>
	<path d="M18.9,5.5c2.4,5.6,6.5,17.5,8.4,24.6c-7.2-2.8-18.7-8-22.5-10.8C7.2,15.9,14.6,8.9,18.9,5.5 M20.2,0c-2,0-20,16-20,20
		s30,16,32,16S22.2,0,20.2,0L20.2,0z"/>
</g>
<g opacity="9.000000e-002">
	<path d="M26.5,27.7c-6-1.1-22.1-5.5-24.4-8c1-3.1,13.2-14.5,17.4-17.3C21.5,6.9,25.8,22.4,26.5,27.7L26.5,27.7z"/>
	<path d="M18.5,5.6c1.8,4.8,4.3,14,5.5,19.5c-2.2-0.5-5.1-1.2-8.1-2.1c-6.3-1.8-9.5-3.1-11.1-3.9C7.3,15.6,14.3,9,18.5,5.6 M20,0
		C18,0,0,16,0,20s26.2,10,28.2,10S22,0,20,0L20,0z"/>
</g>
<g>
	<linearGradient id="SVGID_3_" gradientUnits="userSpaceOnUse" x1="10.2319" y1="10.522" x2="23.2188" y2="23.5088">
		<stop  offset="0" style="stop-color:#9E9E9E"/>
		<stop  offset="1" style="stop-color:#FFFFFF"/>
	</linearGradient>
	<path fill="url(#SVGID_3_)" d="M22.8,23.9c-5.1-0.4-18.3-2.2-20.5-4.2c1-3.1,12.9-14.2,17.2-17.2C20.9,6.8,22.9,19.7,22.8,23.9
		L22.8,23.9z"/>
	<path d="M18.3,6c1,4.4,2.1,11.6,2.4,15.8C16,21.3,8.6,20.2,5.1,18.9C7.7,15.5,14.2,9.3,18.3,6 M20.2,0c-2,0-20,16-20,20s22,6,24,6
		S22.2,0,20.2,0L20.2,0z"/>
</g>
</svg>
