<?xml version="1.0" encoding="utf-8"?>
<!-- Generator: Adobe Illustrator 14.0.0, SVG Export Plug-In  -->
<!DOCTYPE svg PUBLIC "-//W3C//DTD SVG 1.1//EN" "http://www.w3.org/Graphics/SVG/1.1/DTD/svg11.dtd" [
	<!ENTITY ns_flows "http://ns.adobe.com/Flows/1.0/">
]>
<svg version="1.1"
	 xmlns="http://www.w3.org/2000/svg" xmlns:xlink="http://www.w3.org/1999/xlink" xmlns:a="http://ns.adobe.com/AdobeSVGViewerExtensions/3.0/"
	 x="0px" y="0px" width="786px" height="256px" viewBox="9 104 786 256" enable-background="new 9 104 786 256"
	 xml:space="preserve">
<defs>
</defs>
<rect y="193.5" fill="#212123" width="810" height="202.5"/>
<polygon fill="#535359" points="432,202.5 459,243 612,238.5 607.5,202.5 "/>
<polygon fill="#535359" points="63,225 328.5,234 256.5,274.5 49.5,252 "/>
<path fill="#535359" d="M288,202.5c9,0,184.5,9,184.5,9L306,225L288,202.5z"/>
<polygon fill="#535359" points="9,305 814.5,283.5 810,315 4.5,324 "/>
<polygon fill="#535359" points="603,27 630,9 616.5,193.5 594,193.5 "/>
<polygon fill="#B8B8C9" points="612,193.5 630,9 652.5,4.5 643.5,193.5 "/>
<polygon fill="#535359" points="643.5,193.5 729,193.5 747,0 652.5,4.5 "/>
<polygon fill="#1A1A1C" points="729,193.5 747,0 801,0 778.5,193.5 "/>
<polygon fill="#535359" points="778.5,193.5 814.5,193.5 819,4.5 801,0 "/>
<polygon fill="#71717C" points="810,81 810,121.5 562.5,180 553.5,157.5 "/>
<polygon fill="#CACAE0" points="495,171 810,76.5 810,90 495,175.5 "/>
<polygon fill="#434349" points="337.5,63 301.5,63 247.5,49.5 202.5,49.5 202.5,202.5 337.5,211.5 "/>
<polygon fill="#CACAE0" points="459,166.5 459,216 472.5,220.5 580.5,220.5 580.5,162 472.5,162 "/>
<polygon fill="#CACAE0" points="580.5,153 580.5,157.5 450,166.5 450,162 472.5,153 "/>
<polyline fill="#71717C" points="585,90 540,112.5 544.5,117 585,94.5 "/>
<polygon fill="#CACAE0" points="450,130.5 477,108 576,108 576,144 477,144 450,157.5 "/>
<path fill="#71717C" d="M0,18h58.5c0,0,252,121.5,301.5,139.5s85.5,18,85.5,18v4.5l-99-13.5l-342-126L0,18z"/>
<rect x="382.5" y="99" fill="#221560" width="31.5" height="22.5"/>
<rect x="387" y="135" fill="#221560" width="13.5" height="13.5"/>
<rect x="387" y="153" fill="#221560" width="13.5" height="9"/>
<path fill="#B8B8C9" d="M63,63c0,0,76.5-4.5,81,4.5s9,162,9,162L67.5,225L63,63z"/>
<path fill="#CACAE0" d="M234,131.1c0,0,42.6-2.5,45.1,2.5c2.5,5,5,90.3,5,90.3l-47.7-2.5L234,131.1z"/>
<path fill="#BFBFD1" d="M171,104.3c0,0,57.4-3.4,60.8,3.4s6.8,121.5,6.8,121.5l-64.1-3.4L171,104.3z"/>
<path fill="#CACAE0" d="M289.4,148.9c0,0,29.4-1.7,31.1,1.7s3.5,62.2,3.5,62.2l-32.9-1.7L289.4,148.9z"/>
<path fill="#CACAE0" d="M328.5,160.9c0,0,19.1-1.1,20.3,1.1c1.1,2.2,2.3,40.5,2.3,40.5l-21.4-1.1L328.5,160.9z"/>
<path fill="#CACAE0" d="M355.5,166.7c0,0,14.4-0.8,15.2,0.8c0.8,1.7,1.7,30.4,1.7,30.4l-16.1-0.8L355.5,166.7z"/>
<polygon fill="#71717C" points="445.5,121.5 450,117 450,162 445.5,166.5 "/>
<polygon fill="#71717C" points="445.5,166.5 472.5,153 472.5,148.5 445.5,162 "/>
<polygon fill="#71717C" points="445.5,171 472.5,166.5 472.5,157.5 445.5,166.5 "/>
<polygon fill="#71717C" points="454.5,112.5 459,108 459,157.5 454.5,157.5 "/>
<polygon fill="#71717C" points="468,94.5 477,90 477,220.5 468,220.5 "/>
<polygon fill="#71717C" points="445.5,121.5 472.5,94.5 472.5,90 445.5,117 "/>
<polygon fill="#71717C" points="585,153 585,148.5 585,90 580.5,90 580.5,153 "/>
<rect x="477" y="148.5" fill="#71717C" width="108" height="4.5"/>
<rect x="477" y="157.5" fill="#71717C" width="108" height="9"/>
<polygon fill="#71717C" points="445.5,171 450,166.5 450,211.5 445.5,211.5 "/>
<rect x="580.5" y="166.5" fill="#71717C" width="4.5" height="54"/>
<rect x="306" y="126" fill="#FFFFFF" width="27" height="4.5"/>
<rect x="326.3" y="114.8" fill="#FFFFFF" width="4.5" height="4.5"/>
<rect x="308.3" y="105.8" fill="#FFFFFF" width="4.5" height="4.5"/>
<polygon fill="#FFFFFF" points="265.5,99 301.5,108 301.5,112.5 265.5,103.5 "/>
<path fill="#FFFFFF" d="M378,193.5c0,0-4.5,9-9,13.5s-9,9-13.5,13.5s-27,27-31.5,27s-49.5,49.5-54,54s-36,36-40.5,36
	s-68,58.5-68,58.5h77c0,0,58.5-81,63-85.5s9-13.5,18-27s9-13.5,22.5-31.5s9-9,18-22.5s4.5-9,13.5-18s9-18,9-18H378z"/>
<path fill="#FFFFFF" d="M387,193.5l-4.5,13.5c0,0-4.5,9-4.5,13.5s-4.5,13.5-4.5,13.5S360,261,360,265.5s-9,36-13.5,40.5
	s0,4.5-13.5,27s-21,63-21,63h74.3c0,0-3.8-72,0.7-85.5s-4.5-45,0-58.5s4.5-22.5,4.5-27s0-31.5,0-31.5H387z"/>
<path fill="#FFFFFF" d="M396,193.5l4.5,27c0,0,0,0,4.5,13.5s13.5,36,18,63s0,13.5,18,54s22,45,22,45h77c0,0-72-67.5-76.5-85.5
	S450,274.5,441,261s-9-9-18-27s-4.5-18-13.5-22.5s-9-18-9-18H396z"/>
<path fill="#FFFFFF" d="M405,193.5h4.5c0,0-4.5,9,9,13.5s4.5-4.5,18,9s13.5,18,13.5,18s13.5,4.5,27,13.5s54,45,72,58.5
	s136.5,90,136.5,90H611c0,0-89-76.5-102.5-90S450,247.5,450,247.5s-4.5,0-13.5-13.5s-4.5-4.5-9-13.5s-4.5-4.5-9-9s-4.5-4.5-9-9
	S405,193.5,405,193.5z"/>
<path fill="#7A7A84" d="M782.9,126.7c0,0,5.2-5.2,15.5-5.2c7.3,0,5.2,5.2,5.2,5.2l-10.4,82.8h-15.5L782.9,126.7z"/>
<path fill="#7A7A84" d="M752.2,126.7c0,0,5.2-5.2,15.5-5.2c7.3,0,5.2,5.2,5.2,5.2l-10.4,82.8H747L752.2,126.7z"/>
<path fill="#6A6A72" d="M709.2,144.4c0,0,3.6-3.6,10.9-3.6c5.1,0,3.6,3.6,3.6,3.6l-7.3,58.1h-10.9L709.2,144.4z"/>
<path fill="#6A6A72" d="M687.6,144.4c0,0,3.6-3.6,10.9-3.6c5.1,0,3.6,3.6,3.6,3.6l-7.3,58.1H684L687.6,144.4z"/>
<path fill="#535359" d="M625.5,156.4c0,0,2.6-2.6,7.8-2.6c3.7,0,2.6,2.6,2.6,2.6l-5.2,41.6h-7.8L625.5,156.4z"/>
<path fill="#535359" d="M610.1,156.4c0,0,2.6-2.6,7.8-2.6c3.7,0,2.6,2.6,2.6,2.6l-5.2,41.6h-7.8L610.1,156.4z"/>
<polygon fill="#FFFFFF" points="531,261 616.5,274.5 603,297 "/>
<polygon fill="#FFFFFF" points="634.5,274.5 621,297 715.5,297 "/>
<polygon fill="#FFFFFF" points="643.5,270 724.5,292.5 648,256.5 "/>
<polygon fill="#FFFFFF" points="535.5,256.5 639,252 625.5,270 "/>
<path fill="#CACAE0" d="M445.5,166.5c0,0-27,9-58.5,0c-27.4-7.8-94.5-45-94.5-45L126,18H58.5c0,0,220.5,112.5,229.5,117
	s58.5,22.5,58.5,22.5s40.5,13.5,67.5,18s31.5,0,31.5,0V166.5z"/>
<polygon fill="#1E1EBA" points="481.5,111 510,139.5 523.1,139.5 495.2,111 "/>
<polygon fill="#1E1EBA" points="500.5,111 529,139.5 542.1,139.5 514.2,111 "/>
<polygon fill="#1E1EBA" points="519.5,111 543.3,134.8 567,111 "/>
<path fill="#434349" d="M517.5,247.5c0,0,4.5,4.5,9,4.5s4.5-4.5,4.5-4.5v-234h-13.5V247.5z"/>
<polygon fill="#1E1EBA" points="99,216 132,183 132,167.9 99,200.2 "/>
<polygon fill="#1E1EBA" points="99,194 132,161 132,145.9 99,178.2 "/>
<polygon fill="#1E1EBA" points="99,172 126.5,144.5 99,117 "/>
<polygon fill="#1E1EBA" points="192,220.5 220.5,192 220.5,178.9 192,206.8 "/>
<polygon fill="#1E1EBA" points="192,201.5 220.5,173 220.5,159.9 192,187.8 "/>
<polygon fill="#1E1EBA" points="192,182.5 215.8,158.7 192,135 "/>
<polygon fill="#1E1EBA" points="247.5,211.5 270,189 270,178.7 247.5,200.7 "/>
<polygon fill="#1E1EBA" points="247.5,196.5 270,174 270,163.7 247.5,185.7 "/>
<polygon fill="#1E1EBA" points="247.5,181.5 266.3,162.8 247.5,144 "/>
<polygon fill="#1E1EBA" points="297,207 313.5,190.5 313.5,182.9 297,199.1 "/>
<polygon fill="#1E1EBA" points="297,196 313.5,179.5 313.5,171.9 297,188.1 "/>
<polygon fill="#1E1EBA" points="297,185 310.8,171.3 297,157.5 "/>
<polygon fill="#FFFFFF" points="693.6,330 740.8,355.2 755.2,355 708.6,329.8 "/>
<polygon fill="#FFFFFF" points="714.4,329.7 761.7,354.8 776,354.6 729.5,329.4 "/>
<polygon fill="#FFFFFF" points="735.3,329.3 774.7,350.3 787.5,328.5 "/>
</svg>
